<svg width="515" height="515" xmlns="http://www.w3.org/2000/svg" xmlns:xlink="http://www.w3.org/1999/xlink" overflow="hidden"><defs><clipPath id="clip0"><rect x="101" y="618" width="515" height="515"/></clipPath></defs><g clip-path="url(#clip0)" transform="translate(-101 -618)"><path d="M522.656 709.198 194.344 709.198C184.211 709.257 176.045 717.519 176.104 727.652 176.104 727.652 176.104 727.652 176.104 727.652L176.104 949.424C176.152 959.023 183.972 966.767 193.571 966.719 193.829 966.718 194.086 966.711 194.344 966.698L394.979 966.698 465.792 1041.8 465.792 966.698 522.656 966.698C532.244 967.172 540.401 959.784 540.875 950.196 540.888 949.939 540.895 949.681 540.896 949.424L540.896 727.652C540.955 717.519 532.789 709.257 522.657 709.198 522.657 709.198 522.656 709.198 522.656 709.198ZM213.656 848.677 278.031 848.677 278.031 870.135 213.656 870.135ZM315.583 913.052 213.656 913.052 213.656 891.594 315.583 891.594ZM396.052 913.052 337.042 913.052 337.042 891.594 396.052 891.594ZM412.146 870.135 304.854 870.135 304.854 848.677 412.146 848.677ZM476.521 913.052 417.51 913.052 417.51 891.594 476.521 891.594ZM503.344 870.135 433.604 870.135 433.604 848.677 503.344 848.677Z" fill="#4472C4"/></g></svg>