<svg width="656" height="656" xmlns="http://www.w3.org/2000/svg" xmlns:xlink="http://www.w3.org/1999/xlink" overflow="hidden"><defs><clipPath id="clip0"><rect x="0" y="0" width="656" height="656"/></clipPath></defs><g clip-path="url(#clip0)"><path d="M566.483 267.183C564.433 267.183 562.383 267.183 560.333 267.183L542.567 219.35C583.567 196.117 597.917 144.183 575.367 103.183 552.133 62.1833 500.2 47.8333 459.2 70.3833 439.383 81.3167 424.35 100.45 418.883 122.317L355.333 115.483C350.55 85.4167 322.533 64.2333 292.467 69.0167 265.133 73.1167 245.317 96.35 245.317 123.683 245.317 133.25 248.05 142.817 252.833 151.7L176.3 226.867C161.95 215.933 144.183 209.783 125.733 209.783 78.5833 209.783 40.3167 248.05 40.3167 295.2 40.3167 342.35 78.5833 380.617 125.733 380.617L142.817 483.117C114.8 495.417 101.817 528.217 114.117 556.233 126.417 584.25 159.217 597.233 187.233 584.933 213.2 574 226.183 545.3 218.667 517.967L278.8 486.533C317.75 529.583 384.717 533 428.45 494.05 450.317 474.233 463.3 445.533 463.3 416.15 463.3 408.633 462.617 400.433 460.567 392.917L526.85 358.75C547.35 381.983 582.2 384.033 605.433 363.533 628.667 343.033 630.717 308.183 610.217 284.95 597.233 274.017 582.2 267.183 566.483 267.183L566.483 267.183ZM566.483 287.683C575.367 287.683 582.2 294.517 582.2 303.4 582.2 312.283 575.367 319.117 566.483 319.117 557.6 319.117 550.767 312.283 550.767 303.4 550.767 303.4 550.767 303.4 550.767 303.4 550.767 294.517 557.6 287.683 566.483 287.683L566.483 287.683ZM500.883 92.9333C513.867 92.9333 524.8 103.867 524.8 116.85 524.8 129.833 513.867 140.767 500.883 140.767 487.9 140.767 476.967 129.833 476.967 116.85 476.967 116.85 476.967 116.85 476.967 116.85 476.967 103.867 487.217 92.9333 500.883 92.9333ZM452.367 170.833C452.367 167.417 454.417 163.317 457.15 161.267 463.983 156.483 472.183 152.383 480.383 150.333 486.533 148.283 493.367 147.6 500.2 147.6 507.033 147.6 513.867 148.967 520.017 150.333 528.217 152.383 536.417 156.483 543.25 161.95 545.983 164 548.033 168.1 548.033 171.517L548.033 189.967 452.367 189.967 452.367 170.833ZM299.983 88.8333C308.867 88.8333 315.7 95.6667 315.7 104.55 315.7 113.433 308.867 120.267 299.983 120.267 291.1 120.267 284.267 113.433 284.267 104.55 284.267 104.55 284.267 104.55 284.267 104.55 284.267 96.35 291.1 88.8333 299.983 88.8333L299.983 88.8333ZM267.867 140.083C267.867 137.35 269.233 135.3 271.283 133.933 276.067 130.517 281.533 128.467 287 127.1 291.1 125.733 295.883 125.05 299.983 125.05 304.083 125.05 308.867 125.733 312.967 127.1 318.433 128.467 323.217 131.2 328 134.617 330.05 135.983 331.417 138.717 331.417 140.767L331.417 153.067 268.55 153.067 268.55 140.083ZM124.367 243.267C137.35 243.267 148.283 254.2 148.283 267.183 148.283 280.167 137.35 291.1 124.367 291.1 111.383 291.1 100.45 280.167 100.45 267.183 100.45 267.183 100.45 267.183 100.45 267.183 101.133 254.2 111.383 243.267 124.367 243.267L124.367 243.267ZM76.5333 339.617 76.5333 321.167C76.5333 317.75 78.5833 313.65 81.3167 311.6 88.15 306.817 96.35 302.717 104.55 300.667 110.7 298.617 117.533 297.933 124.367 297.933 131.2 297.933 138.033 299.3 144.183 300.667 152.383 302.717 160.583 306.817 167.417 312.283 170.15 314.333 172.2 318.433 172.2 321.85L172.2 340.3 76.5333 339.617ZM194.75 562.383 131.2 562.383 131.2 550.083C131.2 547.35 132.567 545.3 134.617 543.933 139.4 540.517 144.867 537.783 150.333 536.417 154.433 535.05 159.217 534.367 163.317 534.367 167.417 534.367 172.2 535.05 176.3 536.417 181.767 537.783 186.55 540.517 191.333 543.933 193.383 545.3 194.75 548.033 194.75 550.083L194.75 562.383ZM146.917 514.55C146.917 505.667 153.75 498.833 162.633 498.833 171.517 498.833 178.35 505.667 178.35 514.55 178.35 523.433 171.517 530.267 162.633 530.267 154.433 530.95 147.6 523.433 146.917 514.55L146.917 514.55ZM201.583 495.417C192.7 486.533 180.4 481.067 168.1 479.7L151.017 377.2C167.417 371.733 181.767 361.483 192.017 347.817L255.567 381.3C245.317 408.633 247.367 439.383 261.033 465.35L201.583 495.417ZM268.55 356.017 205.683 323.217C208.417 314.333 209.783 305.45 209.783 295.883 209.783 278.117 204.317 261.033 194.067 246.683L270.6 172.2C296.567 187.917 330.733 180.4 346.45 154.433 348.5 151.017 349.867 147.6 351.233 144.183L414.783 151.017C416.15 175.617 428.45 198.85 448.267 213.883L392.233 318.433C347.817 300.667 296.567 316.383 268.55 356.017L268.55 356.017ZM384.717 381.3C384.717 397.7 371.05 410.683 354.65 410.683 338.25 410.683 325.267 397.7 325.267 381.3 325.267 364.9 338.25 351.917 354.65 351.917 354.65 351.917 354.65 351.917 355.333 351.917 371.733 351.917 384.717 364.9 384.717 381.3L384.717 381.3ZM414.1 470.817 295.883 470.817 295.883 448.267C295.883 443.483 297.933 439.383 302.033 436.65 310.917 430.5 320.483 425.717 330.733 422.3 338.933 420.25 347.133 418.883 355.333 418.883 363.533 418.883 371.733 420.25 379.933 422.3 390.183 425.033 400.433 429.817 408.633 436.65 412.05 439.383 414.783 444.167 414.783 448.267L414.1 470.817ZM511.133 323.217C511.133 327.317 511.817 331.417 513.183 335.517L450.317 368.317C442.8 353.283 431.183 340.983 417.517 331.417L473.55 226.867C482.433 230.283 492 231.65 501.567 231.65 507.033 231.65 512.5 230.967 517.967 230.283L535.733 278.117C519.333 287.683 510.45 304.767 511.133 323.217ZM597.917 350.55 534.367 350.55 534.367 338.25C534.367 335.517 535.733 333.467 537.783 332.1 542.567 328.683 548.033 325.95 553.5 324.583 557.6 323.217 562.383 322.533 566.483 322.533 570.583 322.533 575.367 323.217 579.467 324.583 584.933 325.95 589.717 328.683 594.5 332.1 596.55 333.467 597.917 336.2 597.917 338.25L597.917 350.55Z" fill="#4472C4"/></g></svg>